# xmcd
# 
# Track frame offsets:
#     150
#     14170
#     27203
#     43185
#     55030
#     71368
#     85365
#     98403
#     110288
#     126275
#     140615
#     156378
#     169755
#     185038
# 
# Disc length: 2648
# 
# Revision: 4
# Processed by: cddbd v1.5.2PL0 Copyright (c) Steve Scherf et al.
# Submitted via: BonkEnc v1.0.6
# 
DISCID=c00a560e
DTITLE=Robert Wilkins - The Original Rolling Stone
DYEAR=0
DGENRE=Blues
TTITLE0=I'll Go With Her
TTITLE1=Rollin' Stone (Part 1)
TTITLE2=Get Away Blues
TTITLE3=Alabama Blues
TTITLE4=I Do Blues
TTITLE5=Long Train Blues
TTITLE6=That's No Way to Get Along
TTITLE7=Fallin' Down Blues
TTITLE8=Jailhouse Blues
TTITLE9=Losin' Out Blues
TTITLE10=Rollin' Stone (Part 2)
TTITLE11=Old Jim Canan's
TTITLE12=Nashville Stonewall
TTITLE13=Police Sergeant Blues
EXTD=Yazoo 1077\n\nSubmitted 7/11/97\n
EXTT0=
EXTT1=
EXTT2=
EXTT3=
EXTT4=
EXTT5=
EXTT6=
EXTT7=
EXTT8=
EXTT9=
EXTT10=
EXTT11=
EXTT12=
EXTT13=
PLAYORDER=
